FiraSystemMaster-Regular.ufo
<glyph name="two" format="1">
  <advance width="556"/>
  <unicode hex="0032"/>
  <outline>
    <contour>
      <point x="161" y="701"/>
      <point x="97" y="667"/>
      <point x="43" y="600" type="curve"/>
      <point x="105" y="552" type="line"/>
      <point x="148" y="603"/>
      <point x="185" y="625"/>
      <point x="251" y="625" type="curve" smooth="yes"/>
      <point x="326" y="625"/>
      <point x="371" y="579"/>
      <point x="371" y="504" type="curve" smooth="yes"/>
      <point x="371" y="395"/>
      <point x="313" y="319"/>
      <point x="57" y="73" type="curve"/>
      <point x="57" y="0" type="line"/>
      <point x="472" y="0" type="line"/>
      <point x="483" y="77" type="line"/>
      <point x="162" y="77" type="line"/>
      <point x="387" y="282"/>
      <point x="467" y="383"/>
      <point x="467" y="508" type="curve" smooth="yes"/>
      <point x="467" y="617"/>
      <point x="389" y="701"/>
      <point x="256" y="701" type="curve" smooth="yes"/>
    </contour>
  </outline>
</glyph>
<glyph name="seven" format="1">
  <advance width="556"/>
  <unicode hex="0037"/>
  <outline>
    <contour>
      <point x="74" y="689" type="line"/>
      <point x="74" y="614" type="line"/>
      <point x="390" y="614" type="line"/>
      <point x="130" y="18" type="line"/>
      <point x="213" y="-12" type="line"/>
      <point x="483" y="620" type="line"/>
      <point x="483" y="689" type="line"/>
    </contour>
  </outline>
</glyph>
<glyph name="eight" format="1">
  <advance width="556"/>
  <unicode hex="0038"/>
  <outline>
    <contour>
      <point x="175" y="701"/>
      <point x="73" y="642"/>
      <point x="73" y="521" type="curve" smooth="yes"/>
      <point x="73" y="444"/>
      <point x="110" y="389"/>
      <point x="196" y="353" type="curve"/>
      <point x="218" y="345" type="line"/>
      <point x="262" y="329" type="line"/>
      <point x="378" y="295"/>
      <point x="414" y="259"/>
      <point x="414" y="181" type="curve" smooth="yes"/>
      <point x="414" y="111"/>
      <point x="362" y="61"/>
      <point x="276" y="61" type="curve" smooth="yes"/>
      <point x="194" y="61"/>
      <point x="141" y="104"/>
      <point x="141" y="182" type="curve" smooth="yes"/>
      <point x="141" y="263"/>
      <point x="177" y="311"/>
      <point x="253" y="343" type="curve"/>
      <point x="195" y="368" type="line"/>
      <point x="102" y="332"/>
      <point x="45" y="275"/>
      <point x="45" y="181" type="curve" smooth="yes"/>
      <point x="45" y="66"/>
      <point x="138" y="-12"/>
      <point x="276" y="-12" type="curve" smooth="yes"/>
      <point x="413" y="-12"/>
      <point x="510" y="68"/>
      <point x="510" y="184" type="curve" smooth="yes"/>
      <point x="510" y="281"/>
      <point x="451" y="341"/>
      <point x="350" y="376" type="curve"/>
      <point x="327" y="384" type="line"/>
      <point x="297" y="393" type="line"/>
      <point x="210" y="420"/>
      <point x="163" y="447"/>
      <point x="163" y="520" type="curve" smooth="yes"/>
      <point x="163" y="595"/>
      <point x="207" y="632"/>
      <point x="278" y="632" type="curve" smooth="yes"/>
      <point x="350" y="632"/>
      <point x="393" y="590"/>
      <point x="393" y="520" type="curve" smooth="yes"/>
      <point x="393" y="454"/>
      <point x="362" y="418"/>
      <point x="286" y="381" type="curve"/>
      <point x="349" y="360" type="line"/>
      <point x="439" y="400"/>
      <point x="483" y="450"/>
      <point x="483" y="525" type="curve" smooth="yes"/>
      <point x="483" y="646"/>
      <point x="379" y="701"/>
      <point x="278" y="701" type="curve" smooth="yes"/>
    </contour>
  </outline>
</glyph>
<glyph name="uni0314" format="1">
  <advance width="174"/>
  <unicode hex="0314"/>
  <outline>
    <component base="uni0326" xScale="-1" yScale="-1" xOffset="177" yOffset="506"/>
    <contour>
      <point x="83" y="527" type="move" name="_top"/>
    </contour>
  </outline>
</glyph>
<glyph name="partialdiff" format="1">
  <advance width="556"/>
  <unicode hex="2202"/>
  <outline>
    <contour>
      <point x="121" y="654" type="line"/>
      <point x="288" y="605"/>
      <point x="380" y="494"/>
      <point x="383" y="334" type="curve"/>
      <point x="384" y="277" type="line"/>
      <point x="389" y="128"/>
      <point x="343" y="61"/>
      <point x="261" y="61" type="curve" smooth="yes"/>
      <point x="189" y="61"/>
      <point x="141" y="115"/>
      <point x="141" y="215" type="curve" smooth="yes"/>
      <point x="141" y="309"/>
      <point x="191" y="355"/>
      <point x="252" y="355" type="curve" smooth="yes"/>
      <point x="312" y="355"/>
      <point x="357" y="320"/>
      <point x="385" y="261" type="curve"/>
      <point x="390" y="337" type="line"/>
      <point x="360" y="387"/>
      <point x="307" y="427"/>
      <point x="238" y="427" type="curve" smooth="yes"/>
      <point x="133" y="427"/>
      <point x="48" y="343"/>
      <point x="48" y="211" type="curve" smooth="yes"/>
      <point x="48" y="66"/>
      <point x="146" y="-12"/>
      <point x="260" y="-12" type="curve" smooth="yes"/>
      <point x="395" y="-12"/>
      <point x="478" y="100"/>
      <point x="478" y="261" type="curve" smooth="yes"/>
      <point x="478" y="526"/>
      <point x="373" y="655"/>
      <point x="142" y="721" type="curve"/>
    </contour>
  </outline>
</glyph>
<glyph name="summation" format="1">
  <advance width="556"/>
  <unicode hex="2211"/>
  <outline>
    <contour>
      <point x="66" y="689" type="line"/>
      <point x="66" y="611" type="line"/>
      <point x="290" y="344" type="line"/>
      <point x="66" y="78" type="line"/>
      <point x="66" y="0" type="line"/>
      <point x="489" y="0" type="line"/>
      <point x="489" y="78" type="line"/>
      <point x="173" y="78" type="line"/>
      <point x="377" y="325" type="line"/>
      <point x="377" y="367" type="line"/>
      <point x="173" y="611" type="line"/>
      <point x="489" y="611" type="line"/>
      <point x="489" y="689" type="line"/>
    </contour>
  </outline>
</glyph>
<glyph name="radical" format="1">
  <advance width="556"/>
  <unicode hex="221A"/>
  <outline>
    <contour>
      <point x="466" y="852" type="line"/>
      <point x="256" y="95" type="line"/>
      <point x="121" y="484" type="line"/>
      <point x="40" y="457" type="line"/>
      <point x="207" y="0" type="line"/>
      <point x="311" y="0" type="line"/>
      <point x="531" y="775" type="line"/>
      <point x="715" y="775" type="line"/>
      <point x="715" y="852" type="line"/>
    </contour>
  </outline>
</glyph>
<glyph name="Euro.tosf" format="1">
  <advance width="556"/>
  <outline>
    <contour>
      <point x="251" y="679"/>
      <point x="152" y="588"/>
      <point x="125" y="422" type="curve"/>
      <point x="125" y="252" type="line"/>
      <point x="146" y="80"/>
      <point x="233" y="-12"/>
      <point x="375" y="-12" type="curve" smooth="yes"/>
      <point x="436" y="-12"/>
      <point x="480" y="4"/>
      <point x="525" y="26" type="curve"/>
      <point x="525" y="106" type="line"/>
      <point x="486" y="85"/>
      <point x="445" y="65"/>
      <point x="389" y="65" type="curve" smooth="yes"/>
      <point x="285" y="65"/>
      <point x="236" y="121"/>
      <point x="223" y="256" type="curve"/>
      <point x="223" y="414" type="line"/>
      <point x="244" y="547"/>
      <point x="301" y="603"/>
      <point x="383" y="603" type="curve" smooth="yes"/>
      <point x="437" y="603"/>
      <point x="473" y="589"/>
      <point x="521" y="560" type="curve"/>
      <point x="557" y="623" type="line"/>
      <point x="502" y="660"/>
      <point x="446" y="679"/>
      <point x="379" y="679" type="curve" smooth="yes"/>
    </contour>
    <contour>
      <point x="55" y="292" type="line"/>
      <point x="40" y="231" type="line"/>
      <point x="429" y="231" type="line"/>
      <point x="443" y="292" type="line"/>
    </contour>
    <contour>
      <point x="55" y="444" type="line"/>
      <point x="40" y="382" type="line"/>
      <point x="462" y="382" type="line"/>
      <point x="477" y="444" type="line"/>
    </contour>
  </outline>
</glyph>
<glyph name="brevecombcomb" format="1">
  <advance width="362"/>
  <outline>
    <component base="uni0306"/>
    <contour>
      <point x="182" y="894" type="move" name="top"/>
    </contour>
    <contour>
      <point x="182" y="689" type="move" name="_top"/>
    </contour>
  </outline>
</glyph>
<glyph name="cent.lf" format="1">
  <advance width="478"/>
  <outline>
    <contour>
      <point x="250" y="684" type="line"/>
      <point x="250" y="533" type="line"/>
      <point x="329" y="534" type="line"/>
      <point x="329" y="684" type="line"/>
    </contour>
    <contour>
      <point x="249" y="-154" type="line"/>
      <point x="329" y="-154" type="line"/>
      <point x="329" y="-7" type="line"/>
      <point x="249" y="-6" type="line"/>
    </contour>
    <component base="c"/>
  </outline>
</glyph>
<glyph name="four.tosf" format="1">
  <advance width="556"/>
  <outline>
    <contour>
      <point x="49" y="104" type="line"/>
      <point x="49" y="40" type="line"/>
      <point x="536" y="40" type="line"/>
      <point x="536" y="111" type="line"/>
      <point x="146" y="111" type="line"/>
      <point x="327" y="542" type="line"/>
      <point x="250" y="574" type="line"/>
    </contour>
    <contour>
      <point x="361" y="293" type="line"/>
      <point x="352" y="95" type="line"/>
      <point x="352" y="-107" type="line"/>
      <point x="439" y="-107" type="line"/>
      <point x="439" y="293" type="line"/>
    </contour>
  </outline>
</glyph>
<glyph name="lozenge.tf" format="1">
  <advance width="556"/>
  <outline>
    <contour>
      <point x="225" y="689" type="line"/>
      <point x="38" y="346" type="line"/>
      <point x="225" y="0" type="line"/>
      <point x="332" y="0" type="line"/>
      <point x="519" y="347" type="line"/>
      <point x="332" y="689" type="line"/>
    </contour>
    <contour>
      <point x="423" y="346" type="line"/>
      <point x="278" y="68" type="line"/>
      <point x="133" y="347" type="line"/>
      <point x="278" y="622" type="line"/>
    </contour>
  </outline>
</glyph>
<glyph name="multiply.lf" format="1">
  <advance width="500"/>
  <outline>
    <contour>
      <point x="250" y="363" type="line"/>
      <point x="128" y="486" type="line"/>
      <point x="72" y="429" type="line"/>
      <point x="194" y="307" type="line"/>
      <point x="72" y="185" type="line"/>
      <point x="128" y="129" type="line"/>
      <point x="250" y="251" type="line"/>
      <point x="372" y="129" type="line"/>
      <point x="428" y="185" type="line"/>
      <point x="306" y="307" type="line"/>
      <point x="428" y="429" type="line"/>
      <point x="372" y="486" type="line"/>
    </contour>
  </outline>
</glyph>
<glyph name="one.tf" format="1">
  <advance width="556"/>
  <outline>
    <contour>
      <point x="285" y="689" type="line"/>
      <point x="78" y="561" type="line"/>
      <point x="118" y="496" type="line"/>
      <point x="274" y="591" type="line"/>
      <point x="274" y="20" type="line"/>
      <point x="366" y="20" type="line"/>
      <point x="366" y="689" type="line"/>
    </contour>
    <contour>
      <point x="105" y="74" type="line"/>
      <point x="105" y="0" type="line"/>
      <point x="508" y="0" type="line"/>
      <point x="508" y="74" type="line"/>
    </contour>
  </outline>
</glyph>
<glyph name="product.tf" format="1">
  <advance width="556"/>
  <outline>
    <contour>
      <point x="36" y="696" type="line"/>
      <point x="36" y="620" type="line"/>
      <point x="108" y="620" type="line"/>
      <point x="108" y="-213" type="line"/>
      <point x="198" y="-202" type="line"/>
      <point x="198" y="620" type="line"/>
      <point x="363" y="620" type="line"/>
      <point x="363" y="-213" type="line"/>
      <point x="453" y="-202" type="line"/>
      <point x="453" y="620" type="line"/>
      <point x="520" y="620" type="line"/>
      <point x="520" y="696" type="line"/>
    </contour>
  </outline>
</glyph>
<glyph name="sterling.tf" format="1">
  <advance width="556"/>
  <outline>
    <contour>
      <point x="207" y="701"/>
      <point x="140" y="622"/>
      <point x="140" y="515" type="curve"/>
      <point x="140" y="205" type="line"/>
      <point x="140" y="123"/>
      <point x="126" y="98"/>
      <point x="58" y="73" type="curve"/>
      <point x="58" y="0" type="line"/>
      <point x="489" y="0" type="line"/>
      <point x="500" y="77" type="line"/>
      <point x="170" y="77" type="line"/>
      <point x="219" y="104"/>
      <point x="231" y="139"/>
      <point x="231" y="204" type="curve"/>
      <point x="231" y="516" type="line"/>
      <point x="231" y="588"/>
      <point x="269" y="626"/>
      <point x="338" y="626" type="curve" smooth="yes"/>
      <point x="393" y="626"/>
      <point x="426" y="609"/>
      <point x="457" y="572" type="curve"/>
      <point x="518" y="618" type="line"/>
      <point x="470" y="675"/>
      <point x="412" y="701"/>
      <point x="334" y="701" type="curve" smooth="yes"/>
    </contour>
    <contour>
      <point x="74" y="392" type="line"/>
      <point x="74" y="332" type="line"/>
      <point x="449" y="332" type="line"/>
      <point x="449" y="392" type="line"/>
    </contour>
  </outline>
</glyph>
<glyph name="three.tf" format="1">
  <advance width="556"/>
  <outline>
    <contour>
      <point x="176" y="701"/>
      <point x="108" y="676"/>
      <point x="49" y="620" type="curve"/>
      <point x="99" y="565" type="line"/>
      <point x="144" y="607"/>
      <point x="185" y="628"/>
      <point x="244" y="628" type="curve" smooth="yes"/>
      <point x="315" y="628"/>
      <point x="371" y="588"/>
      <point x="371" y="515" type="curve" smooth="yes"/>
      <point x="371" y="435"/>
      <point x="309" y="398"/>
      <point x="243" y="398" type="curve" smooth="yes"/>
      <point x="202" y="398" type="line"/>
      <point x="191" y="327" type="line"/>
      <point x="249" y="327" type="line" smooth="yes"/>
      <point x="330" y="327"/>
      <point x="389" y="295"/>
      <point x="389" y="199" type="curve" smooth="yes"/>
      <point x="389" y="115"/>
      <point x="333" y="63"/>
      <point x="240" y="63" type="curve" smooth="yes"/>
      <point x="184" y="63"/>
      <point x="127" y="85"/>
      <point x="88" y="131" type="curve"/>
      <point x="28" y="81" type="line"/>
      <point x="81" y="17"/>
      <point x="163" y="-12"/>
      <point x="243" y="-12" type="curve" smooth="yes"/>
      <point x="388" y="-12"/>
      <point x="485" y="79"/>
      <point x="485" y="198" type="curve" smooth="yes"/>
      <point x="485" y="303"/>
      <point x="408" y="363"/>
      <point x="326" y="368" type="curve"/>
      <point x="403" y="385"/>
      <point x="463" y="442"/>
      <point x="463" y="528" type="curve" smooth="yes"/>
      <point x="463" y="622"/>
      <point x="381" y="701"/>
      <point x="249" y="701" type="curve" smooth="yes"/>
    </contour>
  </outline>
</glyph>
<glyph name="tilde.sc" format="1">
  <advance width="394"/>
  <outline>
    <component base="tilde" yOffset="30"/>
    <contour>
      <point x="197" y="564" type="move" name="_top"/>
    </contour>
  </outline>
</glyph>
<glyph name="yen.tf" format="1">
  <advance width="556"/>
  <outline>
    <contour>
      <point x="454" y="689" type="line"/>
      <point x="281" y="374" type="line"/>
      <point x="107" y="689" type="line"/>
      <point x="5" y="689" type="line"/>
      <point x="231" y="303" type="line"/>
      <point x="231" y="0" type="line"/>
      <point x="325" y="0" type="line"/>
      <point x="325" y="304" type="line"/>
      <point x="551" y="689" type="line"/>
    </contour>
    <contour>
      <point x="92" y="194" type="line"/>
      <point x="92" y="133" type="line"/>
      <point x="463" y="133" type="line"/>
      <point x="463" y="194" type="line"/>
    </contour>
    <contour>
      <point x="92" y="346" type="line"/>
      <point x="92" y="284" type="line"/>
      <point x="463" y="284" type="line"/>
      <point x="463" y="346" type="line"/>
    </contour>
  </outline>
</glyph>
<glyph name="zero.tosf" format="1">
  <advance width="556"/>
  <outline>
    <contour>
      <point x="128" y="574"/>
      <point x="28" y="468"/>
      <point x="28" y="282" type="curve" smooth="yes"/>
      <point x="28" y="96"/>
      <point x="128" y="-12"/>
      <point x="278" y="-12" type="curve" smooth="yes"/>
      <point x="428" y="-12"/>
      <point x="528" y="96"/>
      <point x="528" y="282" type="curve" smooth="yes"/>
      <point x="528" y="468"/>
      <point x="428" y="574"/>
      <point x="278" y="574" type="curve" smooth="yes"/>
    </contour>
    <contour>
      <point x="361" y="501"/>
      <point x="435" y="443"/>
      <point x="435" y="282" type="curve" smooth="yes"/>
      <point x="435" y="121"/>
      <point x="361" y="61"/>
      <point x="278" y="61" type="curve" smooth="yes"/>
      <point x="195" y="61"/>
      <point x="121" y="121"/>
      <point x="121" y="282" type="curve" smooth="yes"/>
      <point x="121" y="443"/>
      <point x="195" y="501"/>
      <point x="278" y="501" type="curve" smooth="yes"/>
    </contour>
  </outline>
</glyph>
